<svg width="382" height="382" viewBox="0 0 382 382" fill="none" xmlns="http://www.w3.org/2000/svg">
<path d="M157.5 19.3412C178.23 7.37283 203.77 7.37284 224.5 19.3412L322.911 76.1588C343.641 88.1272 356.411 110.246 356.411 134.182V247.818C356.411 271.754 343.641 293.873 322.911 305.841L224.5 362.659C203.77 374.627 178.23 374.627 157.5 362.659L59.0891 305.841C38.3593 293.873 25.5891 271.754 25.5891 247.818V134.182C25.5891 110.246 38.3593 88.1272 59.0891 76.1588L157.5 19.3412Z" fill="#FF3F00"/>
<rect x="69" y="118" width="23" height="168" rx="10" fill="black"/>
<rect x="124" y="202" width="23" height="87" rx="10" fill="black"/>
<rect x="179" y="154" width="23" height="132" rx="10" fill="black"/>
<rect x="234" y="186" width="23" height="103" rx="10" fill="black"/>
<rect x="289" y="118" width="23" height="168" rx="10" fill="black"/>
</svg>
