<svg width="1268" height="382" viewBox="0 0 1268 382" fill="none" xmlns="http://www.w3.org/2000/svg">
<path d="M515.6 227.4V160.6C515.6 150.2 506.467 145 488.2 145C470.067 145 461 150.2 461 160.6V227.4C461 237.8 470.067 243 488.2 243C506.467 243 515.6 237.8 515.6 227.4ZM531.6 162.6V225.4C531.6 236.467 527.667 244.533 519.8 249.6C511.933 254.533 501.467 257 488.4 257C475.333 257 464.8 254.533 456.8 249.6C448.933 244.533 445 236.467 445 225.4V162.6C445 151.533 448.933 143.533 456.8 138.6C464.667 133.533 475.133 131 488.2 131C501.267 131 511.733 133.533 519.6 138.6C527.6 143.533 531.6 151.533 531.6 162.6ZM660.163 162.6V250.4C660.163 253.467 657.496 255 652.163 255C646.829 255 644.163 253.467 644.163 250.4V160.6C644.163 150.2 635.029 145 616.763 145C598.629 145 589.563 150.2 589.563 160.6V250.4C589.563 253.467 586.896 255 581.563 255C576.229 255 573.563 253.467 573.563 250.4V162.6C573.563 151.533 577.496 143.533 585.363 138.6C593.229 133.533 603.696 131 616.763 131C629.829 131 640.296 133.533 648.163 138.6C656.163 143.533 660.163 151.533 660.163 162.6ZM789.827 162.2V168.2C789.827 179.533 787.493 187.333 782.827 191.6C778.16 195.867 769.627 198.6 757.227 199.8L718.227 203.6V227.4C718.227 237.8 726.893 243 744.227 243C763.96 243 773.827 238.467 773.827 229.4V221.8C773.827 218.733 776.493 217.2 781.827 217.2C787.16 217.2 789.827 218.733 789.827 221.8V227.4C789.827 247.133 775.16 257 745.827 257C732.893 257 722.36 254.467 714.227 249.4C706.227 244.333 702.227 236.333 702.227 225.4V162.6C702.227 151.533 706.493 143.533 715.027 138.6C723.56 133.533 734.693 131 748.427 131C762.16 131 772.493 133.4 779.427 138.2C786.36 143 789.827 151 789.827 162.2ZM718.227 160.6V189.6L755.827 185.8C763.427 185 768.293 183.4 770.427 181C772.693 178.6 773.827 174.333 773.827 168.2V160.6C773.827 150.2 764.56 145 746.027 145C727.493 145 718.227 150.2 718.227 160.6ZM857.766 240H875.166C893.299 240 902.366 234.8 902.366 224.4V160.6C902.366 150.2 893.232 145 874.966 145C856.832 145 847.766 150.2 847.766 160.6V300.4C847.766 303.467 845.099 305 839.766 305C834.432 305 831.766 303.467 831.766 300.4V162.6C831.766 151.533 835.699 143.533 843.566 138.6C851.432 133.533 861.899 131 874.966 131C888.032 131 898.499 133.533 906.366 138.6C914.366 143.533 918.366 151.533 918.366 162.6V222.4C918.366 233.467 914.432 241.533 906.566 246.6C898.699 251.533 888.232 254 875.166 254H857.766C855.099 254 853.766 251.667 853.766 247C853.766 242.333 855.099 240 857.766 240ZM976.281 98.6V230.6C976.281 234.867 977.281 238.867 979.281 242.6C981.281 246.2 982.281 248.067 982.281 248.2C982.281 249.8 981.015 251.533 978.481 253.4C975.948 255.133 973.815 256 972.081 256C969.281 256 966.615 253.6 964.081 248.8C961.548 243.867 960.281 238.467 960.281 232.6V98.6C960.281 95.5333 962.948 94 968.281 94C973.615 94 976.281 95.5333 976.281 98.6ZM1070.84 254H1047.44C1035.71 254 1027.24 251.6 1022.04 246.8C1016.84 242 1014.24 233.867 1014.24 222.4V220.8C1014.24 209.467 1016.58 201.667 1021.24 197.4C1025.91 193.133 1034.24 190.4 1046.24 189.2L1080.84 185.8V163.6C1080.84 153.2 1071.78 148 1053.64 148H1026.24C1023.58 148 1022.24 145.667 1022.24 141C1022.24 136.333 1023.58 134 1026.24 134H1053.64C1066.71 134 1077.18 136.533 1085.04 141.6C1092.91 146.533 1096.84 154.533 1096.84 165.6V224.6C1096.84 233.267 1098.38 240.133 1101.44 245.2C1102.38 246.8 1102.84 247.8 1102.84 248.2C1102.84 249.8 1101.58 251.533 1099.04 253.4C1096.51 255.133 1094.38 256 1092.64 256C1089.71 256 1086.98 253.267 1084.44 247.8C1082.04 242.2 1080.84 235.133 1080.84 226.6V199.8L1047.44 203.2C1040.24 204 1035.58 205.6 1033.44 208C1031.31 210.4 1030.24 214.667 1030.24 220.8V222.4C1030.24 228.8 1031.31 233.333 1033.44 236C1035.71 238.667 1040.38 240 1047.44 240H1070.84C1073.51 240 1074.84 242.333 1074.84 247C1074.84 251.667 1073.51 254 1070.84 254ZM1167.35 304H1152.95C1150.28 304 1148.95 301.667 1148.95 297C1148.95 292.333 1150.28 290 1152.95 290H1167.35C1174.82 290 1179.95 288.867 1182.75 286.6C1185.55 284.467 1187.48 280.4 1188.55 274.4L1191.35 257H1179.75C1169.22 257 1161.75 254.867 1157.35 250.6C1152.95 246.333 1149.95 239.333 1148.35 229.6L1133.75 141.6C1133.22 138.533 1132.95 136.867 1132.95 136.6C1132.95 134.2 1135.48 133 1140.55 133C1145.62 133 1148.42 134.533 1148.95 137.6L1163.95 227.4C1164.88 233.133 1166.35 237.2 1168.35 239.6C1170.48 241.867 1174.28 243 1179.75 243H1193.75L1211.35 137.6C1211.88 134.533 1214.55 133 1219.35 133C1224.15 133 1226.55 134.2 1226.55 136.6C1226.55 136.867 1226.35 138.4 1225.95 141.2L1203.75 272.4C1201.62 285.067 1198.22 293.467 1193.55 297.6C1188.88 301.867 1180.15 304 1167.35 304Z" fill="#FF3F00"/>
<path d="M157.5 19.3412C178.23 7.37283 203.77 7.37284 224.5 19.3412L322.911 76.1588C343.641 88.1272 356.411 110.246 356.411 134.182V247.818C356.411 271.754 343.641 293.873 322.911 305.841L224.5 362.659C203.77 374.627 178.23 374.627 157.5 362.659L59.0891 305.841C38.3593 293.873 25.5891 271.754 25.5891 247.818V134.182C25.5891 110.246 38.3593 88.1272 59.0891 76.1588L157.5 19.3412Z" fill="#FF3F00"/>
<rect x="69" y="118" width="23" height="168" rx="10" fill="black"/>
<rect x="124" y="202" width="23" height="87" rx="10" fill="black"/>
<rect x="179" y="154" width="23" height="132" rx="10" fill="black"/>
<rect x="234" y="186" width="23" height="103" rx="10" fill="black"/>
<rect x="289" y="118" width="23" height="168" rx="10" fill="black"/>
</svg>
