<svg width="1266" height="382" viewBox="0 0 1266 382" fill="none" xmlns="http://www.w3.org/2000/svg">
<path d="M157.5 19.3412C178.23 7.37283 203.77 7.37284 224.5 19.3412L322.911 76.1588C343.641 88.1272 356.411 110.246 356.411 134.182V247.818C356.411 271.754 343.641 293.873 322.911 305.841L224.5 362.659C203.77 374.627 178.23 374.627 157.5 362.659L59.0891 305.841C38.3593 293.873 25.5891 271.754 25.5891 247.818V134.182C25.5891 110.246 38.3593 88.1272 59.0891 76.1588L157.5 19.3412Z" fill="black"/>
<path d="M513.6 230.4V163.6C513.6 153.2 504.467 148 486.2 148C468.067 148 459 153.2 459 163.6V230.4C459 240.8 468.067 246 486.2 246C504.467 246 513.6 240.8 513.6 230.4ZM529.6 165.6V228.4C529.6 239.467 525.667 247.533 517.8 252.6C509.933 257.533 499.467 260 486.4 260C473.333 260 462.8 257.533 454.8 252.6C446.933 247.533 443 239.467 443 228.4V165.6C443 154.533 446.933 146.533 454.8 141.6C462.667 136.533 473.133 134 486.2 134C499.267 134 509.733 136.533 517.6 141.6C525.6 146.533 529.6 154.533 529.6 165.6ZM658.163 165.6V253.4C658.163 256.467 655.496 258 650.163 258C644.829 258 642.163 256.467 642.163 253.4V163.6C642.163 153.2 633.029 148 614.763 148C596.629 148 587.563 153.2 587.563 163.6V253.4C587.563 256.467 584.896 258 579.563 258C574.229 258 571.563 256.467 571.563 253.4V165.6C571.563 154.533 575.496 146.533 583.363 141.6C591.229 136.533 601.696 134 614.763 134C627.829 134 638.296 136.533 646.163 141.6C654.163 146.533 658.163 154.533 658.163 165.6ZM787.827 165.2V171.2C787.827 182.533 785.493 190.333 780.827 194.6C776.16 198.867 767.627 201.6 755.227 202.8L716.227 206.6V230.4C716.227 240.8 724.893 246 742.227 246C761.96 246 771.827 241.467 771.827 232.4V224.8C771.827 221.733 774.493 220.2 779.827 220.2C785.16 220.2 787.827 221.733 787.827 224.8V230.4C787.827 250.133 773.16 260 743.827 260C730.893 260 720.36 257.467 712.227 252.4C704.227 247.333 700.227 239.333 700.227 228.4V165.6C700.227 154.533 704.493 146.533 713.027 141.6C721.56 136.533 732.693 134 746.427 134C760.16 134 770.493 136.4 777.427 141.2C784.36 146 787.827 154 787.827 165.2ZM716.227 163.6V192.6L753.827 188.8C761.427 188 766.293 186.4 768.427 184C770.693 181.6 771.827 177.333 771.827 171.2V163.6C771.827 153.2 762.56 148 744.027 148C725.493 148 716.227 153.2 716.227 163.6ZM855.766 243H873.166C891.299 243 900.366 237.8 900.366 227.4V163.6C900.366 153.2 891.232 148 872.966 148C854.832 148 845.766 153.2 845.766 163.6V303.4C845.766 306.467 843.099 308 837.766 308C832.432 308 829.766 306.467 829.766 303.4V165.6C829.766 154.533 833.699 146.533 841.566 141.6C849.432 136.533 859.899 134 872.966 134C886.032 134 896.499 136.533 904.366 141.6C912.366 146.533 916.366 154.533 916.366 165.6V225.4C916.366 236.467 912.432 244.533 904.566 249.6C896.699 254.533 886.232 257 873.166 257H855.766C853.099 257 851.766 254.667 851.766 250C851.766 245.333 853.099 243 855.766 243ZM974.281 101.6V233.6C974.281 237.867 975.281 241.867 977.281 245.6C979.281 249.2 980.281 251.067 980.281 251.2C980.281 252.8 979.015 254.533 976.481 256.4C973.948 258.133 971.815 259 970.081 259C967.281 259 964.615 256.6 962.081 251.8C959.548 246.867 958.281 241.467 958.281 235.6V101.6C958.281 98.5333 960.948 97 966.281 97C971.615 97 974.281 98.5333 974.281 101.6ZM1068.84 257H1045.44C1033.71 257 1025.24 254.6 1020.04 249.8C1014.84 245 1012.24 236.867 1012.24 225.4V223.8C1012.24 212.467 1014.58 204.667 1019.24 200.4C1023.91 196.133 1032.24 193.4 1044.24 192.2L1078.84 188.8V166.6C1078.84 156.2 1069.78 151 1051.64 151H1024.24C1021.58 151 1020.24 148.667 1020.24 144C1020.24 139.333 1021.58 137 1024.24 137H1051.64C1064.71 137 1075.18 139.533 1083.04 144.6C1090.91 149.533 1094.84 157.533 1094.84 168.6V227.6C1094.84 236.267 1096.38 243.133 1099.44 248.2C1100.38 249.8 1100.84 250.8 1100.84 251.2C1100.84 252.8 1099.58 254.533 1097.04 256.4C1094.51 258.133 1092.38 259 1090.64 259C1087.71 259 1084.98 256.267 1082.44 250.8C1080.04 245.2 1078.84 238.133 1078.84 229.6V202.8L1045.44 206.2C1038.24 207 1033.58 208.6 1031.44 211C1029.31 213.4 1028.24 217.667 1028.24 223.8V225.4C1028.24 231.8 1029.31 236.333 1031.44 239C1033.71 241.667 1038.38 243 1045.44 243H1068.84C1071.51 243 1072.84 245.333 1072.84 250C1072.84 254.667 1071.51 257 1068.84 257ZM1165.35 307H1150.95C1148.28 307 1146.95 304.667 1146.95 300C1146.95 295.333 1148.28 293 1150.95 293H1165.35C1172.82 293 1177.95 291.867 1180.75 289.6C1183.55 287.467 1185.48 283.4 1186.55 277.4L1189.35 260H1177.75C1167.22 260 1159.75 257.867 1155.35 253.6C1150.95 249.333 1147.95 242.333 1146.35 232.6L1131.75 144.6C1131.22 141.533 1130.95 139.867 1130.95 139.6C1130.95 137.2 1133.48 136 1138.55 136C1143.62 136 1146.42 137.533 1146.95 140.6L1161.95 230.4C1162.88 236.133 1164.35 240.2 1166.35 242.6C1168.48 244.867 1172.28 246 1177.75 246H1191.75L1209.35 140.6C1209.88 137.533 1212.55 136 1217.35 136C1222.15 136 1224.55 137.2 1224.55 139.6C1224.55 139.867 1224.35 141.4 1223.95 144.2L1201.75 275.4C1199.62 288.067 1196.22 296.467 1191.55 300.6C1186.88 304.867 1178.15 307 1165.35 307Z" fill="black"/>
<rect x="69" y="118" width="23" height="168" rx="10" fill="#FF3F00"/>
<rect x="124" y="202" width="23" height="87" rx="10" fill="#FF3F00"/>
<rect x="179" y="154" width="23" height="132" rx="10" fill="#FF3F00"/>
<rect x="234" y="186" width="23" height="103" rx="10" fill="#FF3F00"/>
<rect x="289" y="118" width="23" height="168" rx="10" fill="#FF3F00"/>
</svg>
