<svg width="691" height="548" viewBox="0 0 691 548" fill="none" xmlns="http://www.w3.org/2000/svg">
<path d="M67.95 489.05V438.95C67.95 431.15 61.1 427.25 47.4 427.25C33.8 427.25 27 431.15 27 438.95V489.05C27 496.85 33.8 500.75 47.4 500.75C61.1 500.75 67.95 496.85 67.95 489.05ZM79.95 440.45V487.55C79.95 495.85 77 501.9 71.1 505.7C65.2 509.4 57.35 511.25 47.55 511.25C37.75 511.25 29.85 509.4 23.85 505.7C17.95 501.9 15 495.85 15 487.55V440.45C15 432.15 17.95 426.15 23.85 422.45C29.75 418.65 37.6 416.75 47.4 416.75C57.2 416.75 65.05 418.65 70.95 422.45C76.95 426.15 79.95 432.15 79.95 440.45ZM176.372 440.45V506.3C176.372 508.6 174.372 509.75 170.372 509.75C166.372 509.75 164.372 508.6 164.372 506.3V438.95C164.372 431.15 157.522 427.25 143.822 427.25C130.222 427.25 123.422 431.15 123.422 438.95V506.3C123.422 508.6 121.422 509.75 117.422 509.75C113.422 509.75 111.422 508.6 111.422 506.3V440.45C111.422 432.15 114.372 426.15 120.272 422.45C126.172 418.65 134.022 416.75 143.822 416.75C153.622 416.75 161.472 418.65 167.372 422.45C173.372 426.15 176.372 432.15 176.372 440.45ZM273.62 440.15V444.65C273.62 453.15 271.87 459 268.37 462.2C264.87 465.4 258.47 467.45 249.17 468.35L219.92 471.2V489.05C219.92 496.85 226.42 500.75 239.42 500.75C254.22 500.75 261.62 497.35 261.62 490.55V484.85C261.62 482.55 263.62 481.4 267.62 481.4C271.62 481.4 273.62 482.55 273.62 484.85V489.05C273.62 503.85 262.62 511.25 240.62 511.25C230.92 511.25 223.02 509.35 216.92 505.55C210.92 501.75 207.92 495.75 207.92 487.55V440.45C207.92 432.15 211.12 426.15 217.52 422.45C223.92 418.65 232.27 416.75 242.57 416.75C252.87 416.75 260.62 418.55 265.82 422.15C271.02 425.75 273.62 431.75 273.62 440.15ZM219.92 438.95V460.7L248.12 457.85C253.82 457.25 257.47 456.05 259.07 454.25C260.77 452.45 261.62 449.25 261.62 444.65V438.95C261.62 431.15 254.67 427.25 240.77 427.25C226.87 427.25 219.92 431.15 219.92 438.95ZM324.574 498.5H337.624C351.224 498.5 358.024 494.6 358.024 486.8V438.95C358.024 431.15 351.174 427.25 337.474 427.25C323.874 427.25 317.074 431.15 317.074 438.95V543.8C317.074 546.1 315.074 547.25 311.074 547.25C307.074 547.25 305.074 546.1 305.074 543.8V440.45C305.074 432.15 308.024 426.15 313.924 422.45C319.824 418.65 327.674 416.75 337.474 416.75C347.274 416.75 355.124 418.65 361.024 422.45C367.024 426.15 370.024 432.15 370.024 440.45V485.3C370.024 493.6 367.074 499.65 361.174 503.45C355.274 507.15 347.424 509 337.624 509H324.574C322.574 509 321.574 507.25 321.574 503.75C321.574 500.25 322.574 498.5 324.574 498.5ZM413.461 392.45V491.45C413.461 494.65 414.211 497.65 415.711 500.45C417.211 503.15 417.961 504.55 417.961 504.65C417.961 505.85 417.011 507.15 415.111 508.55C413.211 509.85 411.611 510.5 410.311 510.5C408.211 510.5 406.211 508.7 404.311 505.1C402.411 501.4 401.461 497.35 401.461 492.95V392.45C401.461 390.15 403.461 389 407.461 389C411.461 389 413.461 390.15 413.461 392.45ZM484.382 509H466.832C458.032 509 451.682 507.2 447.782 503.6C443.882 500 441.932 493.9 441.932 485.3V484.1C441.932 475.6 443.682 469.75 447.182 466.55C450.682 463.35 456.932 461.3 465.932 460.4L491.882 457.85V441.2C491.882 433.4 485.082 429.5 471.482 429.5H450.932C448.932 429.5 447.932 427.75 447.932 424.25C447.932 420.75 448.932 419 450.932 419H471.482C481.282 419 489.132 420.9 495.032 424.7C500.932 428.4 503.882 434.4 503.882 442.7V486.95C503.882 493.45 505.032 498.6 507.332 502.4C508.032 503.6 508.382 504.35 508.382 504.65C508.382 505.85 507.432 507.15 505.532 508.55C503.632 509.85 502.032 510.5 500.732 510.5C498.532 510.5 496.482 508.45 494.582 504.35C492.782 500.15 491.882 494.85 491.882 488.45V468.35L466.832 470.9C461.432 471.5 457.932 472.7 456.332 474.5C454.732 476.3 453.932 479.5 453.932 484.1V485.3C453.932 490.1 454.732 493.5 456.332 495.5C458.032 497.5 461.532 498.5 466.832 498.5H484.382C486.382 498.5 487.382 500.25 487.382 503.75C487.382 507.25 486.382 509 484.382 509ZM556.763 546.5H545.963C543.963 546.5 542.963 544.75 542.963 541.25C542.963 537.75 543.963 536 545.963 536H556.763C562.363 536 566.213 535.15 568.313 533.45C570.413 531.85 571.863 528.8 572.663 524.3L574.763 511.25H566.063C558.163 511.25 552.563 509.65 549.263 506.45C545.963 503.25 543.713 498 542.513 490.7L531.563 424.7C531.163 422.4 530.963 421.15 530.963 420.95C530.963 419.15 532.863 418.25 536.663 418.25C540.463 418.25 542.563 419.4 542.963 421.7L554.213 489.05C554.913 493.35 556.013 496.4 557.513 498.2C559.113 499.9 561.963 500.75 566.063 500.75H576.563L589.763 421.7C590.163 419.4 592.163 418.25 595.763 418.25C599.363 418.25 601.163 419.15 601.163 420.95C601.163 421.15 601.013 422.3 600.713 424.4L584.063 522.8C582.463 532.3 579.913 538.6 576.413 541.7C572.913 544.9 566.363 546.5 556.763 546.5Z" fill="black"/>
<path d="M267.5 19.3412C288.23 7.37283 313.77 7.37284 334.5 19.3412L432.911 76.1588C453.641 88.1272 466.411 110.246 466.411 134.182V247.818C466.411 271.754 453.641 293.873 432.911 305.841L334.5 362.659C313.77 374.627 288.23 374.627 267.5 362.659L169.089 305.841C148.359 293.873 135.589 271.754 135.589 247.818V134.182C135.589 110.246 148.359 88.1272 169.089 76.1588L267.5 19.3412Z" fill="black"/>
<rect x="179" y="118" width="23" height="168" rx="10" fill="#FF3F00"/>
<rect x="234" y="202" width="23" height="87" rx="10" fill="#FF3F00"/>
<rect x="289" y="154" width="23" height="132" rx="10" fill="#FF3F00"/>
<rect x="344" y="186" width="23" height="103" rx="10" fill="#FF3F00"/>
<rect x="399" y="118" width="23" height="168" rx="10" fill="#FF3F00"/>
</svg>
