<svg width="691" height="542" viewBox="0 0 691 542" fill="none" xmlns="http://www.w3.org/2000/svg">
<path d="M67.95 483.05V432.95C67.95 425.15 61.1 421.25 47.4 421.25C33.8 421.25 27 425.15 27 432.95V483.05C27 490.85 33.8 494.75 47.4 494.75C61.1 494.75 67.95 490.85 67.95 483.05ZM79.95 434.45V481.55C79.95 489.85 77 495.9 71.1 499.7C65.2 503.4 57.35 505.25 47.55 505.25C37.75 505.25 29.85 503.4 23.85 499.7C17.95 495.9 15 489.85 15 481.55V434.45C15 426.15 17.95 420.15 23.85 416.45C29.75 412.65 37.6 410.75 47.4 410.75C57.2 410.75 65.05 412.65 70.95 416.45C76.95 420.15 79.95 426.15 79.95 434.45ZM176.372 434.45V500.3C176.372 502.6 174.372 503.75 170.372 503.75C166.372 503.75 164.372 502.6 164.372 500.3V432.95C164.372 425.15 157.522 421.25 143.822 421.25C130.222 421.25 123.422 425.15 123.422 432.95V500.3C123.422 502.6 121.422 503.75 117.422 503.75C113.422 503.75 111.422 502.6 111.422 500.3V434.45C111.422 426.15 114.372 420.15 120.272 416.45C126.172 412.65 134.022 410.75 143.822 410.75C153.622 410.75 161.472 412.65 167.372 416.45C173.372 420.15 176.372 426.15 176.372 434.45ZM273.62 434.15V438.65C273.62 447.15 271.87 453 268.37 456.2C264.87 459.4 258.47 461.45 249.17 462.35L219.92 465.2V483.05C219.92 490.85 226.42 494.75 239.42 494.75C254.22 494.75 261.62 491.35 261.62 484.55V478.85C261.62 476.55 263.62 475.4 267.62 475.4C271.62 475.4 273.62 476.55 273.62 478.85V483.05C273.62 497.85 262.62 505.25 240.62 505.25C230.92 505.25 223.02 503.35 216.92 499.55C210.92 495.75 207.92 489.75 207.92 481.55V434.45C207.92 426.15 211.12 420.15 217.52 416.45C223.92 412.65 232.27 410.75 242.57 410.75C252.87 410.75 260.62 412.55 265.82 416.15C271.02 419.75 273.62 425.75 273.62 434.15ZM219.92 432.95V454.7L248.12 451.85C253.82 451.25 257.47 450.05 259.07 448.25C260.77 446.45 261.62 443.25 261.62 438.65V432.95C261.62 425.15 254.67 421.25 240.77 421.25C226.87 421.25 219.92 425.15 219.92 432.95ZM324.574 492.5H337.624C351.224 492.5 358.024 488.6 358.024 480.8V432.95C358.024 425.15 351.174 421.25 337.474 421.25C323.874 421.25 317.074 425.15 317.074 432.95V537.8C317.074 540.1 315.074 541.25 311.074 541.25C307.074 541.25 305.074 540.1 305.074 537.8V434.45C305.074 426.15 308.024 420.15 313.924 416.45C319.824 412.65 327.674 410.75 337.474 410.75C347.274 410.75 355.124 412.65 361.024 416.45C367.024 420.15 370.024 426.15 370.024 434.45V479.3C370.024 487.6 367.074 493.65 361.174 497.45C355.274 501.15 347.424 503 337.624 503H324.574C322.574 503 321.574 501.25 321.574 497.75C321.574 494.25 322.574 492.5 324.574 492.5ZM413.461 386.45V485.45C413.461 488.65 414.211 491.65 415.711 494.45C417.211 497.15 417.961 498.55 417.961 498.65C417.961 499.85 417.011 501.15 415.111 502.55C413.211 503.85 411.611 504.5 410.311 504.5C408.211 504.5 406.211 502.7 404.311 499.1C402.411 495.4 401.461 491.35 401.461 486.95V386.45C401.461 384.15 403.461 383 407.461 383C411.461 383 413.461 384.15 413.461 386.45ZM484.382 503H466.832C458.032 503 451.682 501.2 447.782 497.6C443.882 494 441.932 487.9 441.932 479.3V478.1C441.932 469.6 443.682 463.75 447.182 460.55C450.682 457.35 456.932 455.3 465.932 454.4L491.882 451.85V435.2C491.882 427.4 485.082 423.5 471.482 423.5H450.932C448.932 423.5 447.932 421.75 447.932 418.25C447.932 414.75 448.932 413 450.932 413H471.482C481.282 413 489.132 414.9 495.032 418.7C500.932 422.4 503.882 428.4 503.882 436.7V480.95C503.882 487.45 505.032 492.6 507.332 496.4C508.032 497.6 508.382 498.35 508.382 498.65C508.382 499.85 507.432 501.15 505.532 502.55C503.632 503.85 502.032 504.5 500.732 504.5C498.532 504.5 496.482 502.45 494.582 498.35C492.782 494.15 491.882 488.85 491.882 482.45V462.35L466.832 464.9C461.432 465.5 457.932 466.7 456.332 468.5C454.732 470.3 453.932 473.5 453.932 478.1V479.3C453.932 484.1 454.732 487.5 456.332 489.5C458.032 491.5 461.532 492.5 466.832 492.5H484.382C486.382 492.5 487.382 494.25 487.382 497.75C487.382 501.25 486.382 503 484.382 503ZM556.763 540.5H545.963C543.963 540.5 542.963 538.75 542.963 535.25C542.963 531.75 543.963 530 545.963 530H556.763C562.363 530 566.213 529.15 568.313 527.45C570.413 525.85 571.863 522.8 572.663 518.3L574.763 505.25H566.063C558.163 505.25 552.563 503.65 549.263 500.45C545.963 497.25 543.713 492 542.513 484.7L531.563 418.7C531.163 416.4 530.963 415.15 530.963 414.95C530.963 413.15 532.863 412.25 536.663 412.25C540.463 412.25 542.563 413.4 542.963 415.7L554.213 483.05C554.913 487.35 556.013 490.4 557.513 492.2C559.113 493.9 561.963 494.75 566.063 494.75H576.563L589.763 415.7C590.163 413.4 592.163 412.25 595.763 412.25C599.363 412.25 601.163 413.15 601.163 414.95C601.163 415.15 601.013 416.3 600.713 418.4L584.063 516.8C582.463 526.3 579.913 532.6 576.413 535.7C572.913 538.9 566.363 540.5 556.763 540.5Z" fill="#FF3F00"/>
<path d="M267.5 19.3412C288.23 7.37283 313.77 7.37284 334.5 19.3412L432.911 76.1588C453.641 88.1272 466.411 110.246 466.411 134.182V247.818C466.411 271.754 453.641 293.873 432.911 305.841L334.5 362.659C313.77 374.627 288.23 374.627 267.5 362.659L169.089 305.841C148.359 293.873 135.589 271.754 135.589 247.818V134.182C135.589 110.246 148.359 88.1272 169.089 76.1588L267.5 19.3412Z" fill="#FF3F00"/>
<rect x="179" y="118" width="23" height="168" rx="10" fill="black"/>
<rect x="234" y="202" width="23" height="87" rx="10" fill="black"/>
<rect x="289" y="154" width="23" height="132" rx="10" fill="black"/>
<rect x="344" y="186" width="23" height="103" rx="10" fill="black"/>
<rect x="399" y="118" width="23" height="168" rx="10" fill="black"/>
</svg>
