<svg width="843" height="825" viewBox="0 0 843 825" fill="none" xmlns="http://www.w3.org/2000/svg">
<ellipse cx="421.5" cy="412.5" rx="421.5" ry="412.5" fill="#FF3F00"/>
<path d="M388.5 96.3412C409.23 84.3728 434.77 84.3728 455.5 96.3412L553.911 153.159C574.641 165.127 587.411 187.246 587.411 211.182V324.818C587.411 348.754 574.641 370.873 553.911 382.841L455.5 439.659C434.77 451.627 409.23 451.627 388.5 439.659L290.089 382.841C269.359 370.873 256.589 348.754 256.589 324.818V211.182C256.589 187.246 269.359 165.127 290.089 153.159L388.5 96.3412Z" fill="black"/>
<rect x="300" y="195" width="23" height="168" rx="10" fill="#FF3F00"/>
<rect x="355" y="279" width="23" height="87" rx="10" fill="#FF3F00"/>
<rect x="410" y="231" width="23" height="132" rx="10" fill="#FF3F00"/>
<rect x="465" y="263" width="23" height="103" rx="10" fill="#FF3F00"/>
<rect x="520" y="195" width="23" height="168" rx="10" fill="#FF3F00"/>
<path d="M169.95 579.05V528.95C169.95 521.15 163.1 517.25 149.4 517.25C135.8 517.25 129 521.15 129 528.95V579.05C129 586.85 135.8 590.75 149.4 590.75C163.1 590.75 169.95 586.85 169.95 579.05ZM181.95 530.45V577.55C181.95 585.85 179 591.9 173.1 595.7C167.2 599.4 159.35 601.25 149.55 601.25C139.75 601.25 131.85 599.4 125.85 595.7C119.95 591.9 117 585.85 117 577.55V530.45C117 522.15 119.95 516.15 125.85 512.45C131.75 508.65 139.6 506.75 149.4 506.75C159.2 506.75 167.05 508.65 172.95 512.45C178.95 516.15 181.95 522.15 181.95 530.45ZM278.372 530.45V596.3C278.372 598.6 276.372 599.75 272.372 599.75C268.372 599.75 266.372 598.6 266.372 596.3V528.95C266.372 521.15 259.522 517.25 245.822 517.25C232.222 517.25 225.422 521.15 225.422 528.95V596.3C225.422 598.6 223.422 599.75 219.422 599.75C215.422 599.75 213.422 598.6 213.422 596.3V530.45C213.422 522.15 216.372 516.15 222.272 512.45C228.172 508.65 236.022 506.75 245.822 506.75C255.622 506.75 263.472 508.65 269.372 512.45C275.372 516.15 278.372 522.15 278.372 530.45ZM375.62 530.15V534.65C375.62 543.15 373.87 549 370.37 552.2C366.87 555.4 360.47 557.45 351.17 558.35L321.92 561.2V579.05C321.92 586.85 328.42 590.75 341.42 590.75C356.22 590.75 363.62 587.35 363.62 580.55V574.85C363.62 572.55 365.62 571.4 369.62 571.4C373.62 571.4 375.62 572.55 375.62 574.85V579.05C375.62 593.85 364.62 601.25 342.62 601.25C332.92 601.25 325.02 599.35 318.92 595.55C312.92 591.75 309.92 585.75 309.92 577.55V530.45C309.92 522.15 313.12 516.15 319.52 512.45C325.92 508.65 334.27 506.75 344.57 506.75C354.87 506.75 362.62 508.55 367.82 512.15C373.02 515.75 375.62 521.75 375.62 530.15ZM321.92 528.95V550.7L350.12 547.85C355.82 547.25 359.47 546.05 361.07 544.25C362.77 542.45 363.62 539.25 363.62 534.65V528.95C363.62 521.15 356.67 517.25 342.77 517.25C328.87 517.25 321.92 521.15 321.92 528.95ZM426.574 588.5H439.624C453.224 588.5 460.024 584.6 460.024 576.8V528.95C460.024 521.15 453.174 517.25 439.474 517.25C425.874 517.25 419.074 521.15 419.074 528.95V633.8C419.074 636.1 417.074 637.25 413.074 637.25C409.074 637.25 407.074 636.1 407.074 633.8V530.45C407.074 522.15 410.024 516.15 415.924 512.45C421.824 508.65 429.674 506.75 439.474 506.75C449.274 506.75 457.124 508.65 463.024 512.45C469.024 516.15 472.024 522.15 472.024 530.45V575.3C472.024 583.6 469.074 589.65 463.174 593.45C457.274 597.15 449.424 599 439.624 599H426.574C424.574 599 423.574 597.25 423.574 593.75C423.574 590.25 424.574 588.5 426.574 588.5ZM515.461 482.45V581.45C515.461 584.65 516.211 587.65 517.711 590.45C519.211 593.15 519.961 594.55 519.961 594.65C519.961 595.85 519.011 597.15 517.111 598.55C515.211 599.85 513.611 600.5 512.311 600.5C510.211 600.5 508.211 598.7 506.311 595.1C504.411 591.4 503.461 587.35 503.461 582.95V482.45C503.461 480.15 505.461 479 509.461 479C513.461 479 515.461 480.15 515.461 482.45ZM586.382 599H568.832C560.032 599 553.682 597.2 549.782 593.6C545.882 590 543.932 583.9 543.932 575.3V574.1C543.932 565.6 545.682 559.75 549.182 556.55C552.682 553.35 558.932 551.3 567.932 550.4L593.882 547.85V531.2C593.882 523.4 587.082 519.5 573.482 519.5H552.932C550.932 519.5 549.932 517.75 549.932 514.25C549.932 510.75 550.932 509 552.932 509H573.482C583.282 509 591.132 510.9 597.032 514.7C602.932 518.4 605.882 524.4 605.882 532.7V576.95C605.882 583.45 607.032 588.6 609.332 592.4C610.032 593.6 610.382 594.35 610.382 594.65C610.382 595.85 609.432 597.15 607.532 598.55C605.632 599.85 604.032 600.5 602.732 600.5C600.532 600.5 598.482 598.45 596.582 594.35C594.782 590.15 593.882 584.85 593.882 578.45V558.35L568.832 560.9C563.432 561.5 559.932 562.7 558.332 564.5C556.732 566.3 555.932 569.5 555.932 574.1V575.3C555.932 580.1 556.732 583.5 558.332 585.5C560.032 587.5 563.532 588.5 568.832 588.5H586.382C588.382 588.5 589.382 590.25 589.382 593.75C589.382 597.25 588.382 599 586.382 599ZM658.763 636.5H647.963C645.963 636.5 644.963 634.75 644.963 631.25C644.963 627.75 645.963 626 647.963 626H658.763C664.363 626 668.213 625.15 670.313 623.45C672.413 621.85 673.863 618.8 674.663 614.3L676.763 601.25H668.063C660.163 601.25 654.563 599.65 651.263 596.45C647.963 593.25 645.713 588 644.513 580.7L633.563 514.7C633.163 512.4 632.963 511.15 632.963 510.95C632.963 509.15 634.863 508.25 638.663 508.25C642.463 508.25 644.563 509.4 644.963 511.7L656.213 579.05C656.913 583.35 658.013 586.4 659.513 588.2C661.113 589.9 663.963 590.75 668.063 590.75H678.563L691.763 511.7C692.163 509.4 694.163 508.25 697.763 508.25C701.363 508.25 703.163 509.15 703.163 510.95C703.163 511.15 703.013 512.3 702.713 514.4L686.063 612.8C684.463 622.3 681.913 628.6 678.413 631.7C674.913 634.9 668.363 636.5 658.763 636.5Z" fill="black"/>
</svg>
