<svg width="843" height="825" viewBox="0 0 843 825" fill="none" xmlns="http://www.w3.org/2000/svg">
<ellipse cx="421.5" cy="412.5" rx="421.5" ry="412.5" fill="black"/>
<path d="M388.5 104.341C409.23 92.3728 434.77 92.3728 455.5 104.341L553.911 161.159C574.641 173.127 587.411 195.246 587.411 219.182V332.818C587.411 356.754 574.641 378.873 553.911 390.841L455.5 447.659C434.77 459.627 409.23 459.627 388.5 447.659L290.089 390.841C269.359 378.873 256.589 356.754 256.589 332.818V219.182C256.589 195.246 269.359 173.127 290.089 161.159L388.5 104.341Z" fill="#FF3F00"/>
<rect x="300" y="203" width="23" height="168" rx="10" fill="black"/>
<rect x="355" y="287" width="23" height="87" rx="10" fill="black"/>
<rect x="410" y="239" width="23" height="132" rx="10" fill="black"/>
<rect x="465" y="271" width="23" height="103" rx="10" fill="black"/>
<rect x="520" y="203" width="23" height="168" rx="10" fill="black"/>
<path d="M174.95 608.05V557.95C174.95 550.15 168.1 546.25 154.4 546.25C140.8 546.25 134 550.15 134 557.95V608.05C134 615.85 140.8 619.75 154.4 619.75C168.1 619.75 174.95 615.85 174.95 608.05ZM186.95 559.45V606.55C186.95 614.85 184 620.9 178.1 624.7C172.2 628.4 164.35 630.25 154.55 630.25C144.75 630.25 136.85 628.4 130.85 624.7C124.95 620.9 122 614.85 122 606.55V559.45C122 551.15 124.95 545.15 130.85 541.45C136.75 537.65 144.6 535.75 154.4 535.75C164.2 535.75 172.05 537.65 177.95 541.45C183.95 545.15 186.95 551.15 186.95 559.45ZM283.372 559.45V625.3C283.372 627.6 281.372 628.75 277.372 628.75C273.372 628.75 271.372 627.6 271.372 625.3V557.95C271.372 550.15 264.522 546.25 250.822 546.25C237.222 546.25 230.422 550.15 230.422 557.95V625.3C230.422 627.6 228.422 628.75 224.422 628.75C220.422 628.75 218.422 627.6 218.422 625.3V559.45C218.422 551.15 221.372 545.15 227.272 541.45C233.172 537.65 241.022 535.75 250.822 535.75C260.622 535.75 268.472 537.65 274.372 541.45C280.372 545.15 283.372 551.15 283.372 559.45ZM380.62 559.15V563.65C380.62 572.15 378.87 578 375.37 581.2C371.87 584.4 365.47 586.45 356.17 587.35L326.92 590.2V608.05C326.92 615.85 333.42 619.75 346.42 619.75C361.22 619.75 368.62 616.35 368.62 609.55V603.85C368.62 601.55 370.62 600.4 374.62 600.4C378.62 600.4 380.62 601.55 380.62 603.85V608.05C380.62 622.85 369.62 630.25 347.62 630.25C337.92 630.25 330.02 628.35 323.92 624.55C317.92 620.75 314.92 614.75 314.92 606.55V559.45C314.92 551.15 318.12 545.15 324.52 541.45C330.92 537.65 339.27 535.75 349.57 535.75C359.87 535.75 367.62 537.55 372.82 541.15C378.02 544.75 380.62 550.75 380.62 559.15ZM326.92 557.95V579.7L355.12 576.85C360.82 576.25 364.47 575.05 366.07 573.25C367.77 571.45 368.62 568.25 368.62 563.65V557.95C368.62 550.15 361.67 546.25 347.77 546.25C333.87 546.25 326.92 550.15 326.92 557.95ZM431.574 617.5H444.624C458.224 617.5 465.024 613.6 465.024 605.8V557.95C465.024 550.15 458.174 546.25 444.474 546.25C430.874 546.25 424.074 550.15 424.074 557.95V662.8C424.074 665.1 422.074 666.25 418.074 666.25C414.074 666.25 412.074 665.1 412.074 662.8V559.45C412.074 551.15 415.024 545.15 420.924 541.45C426.824 537.65 434.674 535.75 444.474 535.75C454.274 535.75 462.124 537.65 468.024 541.45C474.024 545.15 477.024 551.15 477.024 559.45V604.3C477.024 612.6 474.074 618.65 468.174 622.45C462.274 626.15 454.424 628 444.624 628H431.574C429.574 628 428.574 626.25 428.574 622.75C428.574 619.25 429.574 617.5 431.574 617.5ZM520.461 511.45V610.45C520.461 613.65 521.211 616.65 522.711 619.45C524.211 622.15 524.961 623.55 524.961 623.65C524.961 624.85 524.011 626.15 522.111 627.55C520.211 628.85 518.611 629.5 517.311 629.5C515.211 629.5 513.211 627.7 511.311 624.1C509.411 620.4 508.461 616.35 508.461 611.95V511.45C508.461 509.15 510.461 508 514.461 508C518.461 508 520.461 509.15 520.461 511.45ZM591.382 628H573.832C565.032 628 558.682 626.2 554.782 622.6C550.882 619 548.932 612.9 548.932 604.3V603.1C548.932 594.6 550.682 588.75 554.182 585.55C557.682 582.35 563.932 580.3 572.932 579.4L598.882 576.85V560.2C598.882 552.4 592.082 548.5 578.482 548.5H557.932C555.932 548.5 554.932 546.75 554.932 543.25C554.932 539.75 555.932 538 557.932 538H578.482C588.282 538 596.132 539.9 602.032 543.7C607.932 547.4 610.882 553.4 610.882 561.7V605.95C610.882 612.45 612.032 617.6 614.332 621.4C615.032 622.6 615.382 623.35 615.382 623.65C615.382 624.85 614.432 626.15 612.532 627.55C610.632 628.85 609.032 629.5 607.732 629.5C605.532 629.5 603.482 627.45 601.582 623.35C599.782 619.15 598.882 613.85 598.882 607.45V587.35L573.832 589.9C568.432 590.5 564.932 591.7 563.332 593.5C561.732 595.3 560.932 598.5 560.932 603.1V604.3C560.932 609.1 561.732 612.5 563.332 614.5C565.032 616.5 568.532 617.5 573.832 617.5H591.382C593.382 617.5 594.382 619.25 594.382 622.75C594.382 626.25 593.382 628 591.382 628ZM663.763 665.5H652.963C650.963 665.5 649.963 663.75 649.963 660.25C649.963 656.75 650.963 655 652.963 655H663.763C669.363 655 673.213 654.15 675.313 652.45C677.413 650.85 678.863 647.8 679.663 643.3L681.763 630.25H673.063C665.163 630.25 659.563 628.65 656.263 625.45C652.963 622.25 650.713 617 649.513 609.7L638.563 543.7C638.163 541.4 637.963 540.15 637.963 539.95C637.963 538.15 639.863 537.25 643.663 537.25C647.463 537.25 649.563 538.4 649.963 540.7L661.213 608.05C661.913 612.35 663.013 615.4 664.513 617.2C666.113 618.9 668.963 619.75 673.063 619.75H683.563L696.763 540.7C697.163 538.4 699.163 537.25 702.763 537.25C706.363 537.25 708.163 538.15 708.163 539.95C708.163 540.15 708.013 541.3 707.713 543.4L691.063 641.8C689.463 651.3 686.913 657.6 683.413 660.7C679.913 663.9 673.363 665.5 663.763 665.5Z" fill="#FF3F00"/>
</svg>
